<svg width="47" height="48" viewBox="0 0 47 48" fill="none" xmlns="http://www.w3.org/2000/svg">
<g filter="url(#filter0_d_149_618)">
<rect x="10" y="8" width="26" height="24" fill="black"/>
<path d="M31.4722 11.9721C31.48 11.9721 31.4903 11.9721 31.5007 11.9721C31.7713 11.9721 32.0225 12.0584 32.2284 12.2072L32.2245 12.2045C32.3747 12.3386 32.4757 12.5272 32.5003 12.7397V12.7437C32.5262 12.9057 32.5404 13.0916 32.5404 13.2815C32.5404 13.3679 32.5378 13.4529 32.5314 13.5378V13.5259C32.24 16.672 30.9763 24.3015 30.3341 27.8234C30.0622 29.3147 29.5274 29.8141 29.0095 29.8619C27.8843 29.9695 27.0297 29.0996 25.9394 28.3665C24.2329 27.2178 23.2682 26.5033 21.6122 25.3838C19.6971 24.0916 20.9388 23.3785 22.0291 22.2178C22.3152 21.9124 27.2757 17.2842 27.3728 16.8645C27.378 16.8393 27.3806 16.8114 27.3806 16.7822C27.3806 16.6786 27.343 16.5843 27.2822 16.5126C27.2148 16.4675 27.1307 16.4422 27.0426 16.4422C26.9844 16.4422 26.9287 16.4542 26.8769 16.4741L26.8795 16.4728C26.7086 16.5126 23.9826 18.3603 18.7014 22.0159C18.1252 22.4821 17.3975 22.7769 16.6051 22.8114H16.5973C15.4747 22.672 14.4557 22.4157 13.4884 22.0505L13.5843 22.0823C12.3697 21.676 11.4051 21.4622 11.4879 20.7742C11.532 20.4166 12.0128 20.0505 12.9304 19.676C18.5827 17.1501 22.3519 15.4852 24.238 14.6813C26.3188 13.5485 28.7311 12.6162 31.2676 12.012L31.4709 11.9708L31.4722 11.9721ZM23.4547 0C12.7051 0.0265604 4 8.97078 4 20C4 31.0452 12.7297 40 23.5 40C34.2703 40 43 31.0465 43 20C43 8.97078 34.2949 0.0265604 23.5479 0H23.5453C23.5151 0 23.4849 0 23.4547 0Z" fill="white"/>
</g>
<defs>
<filter id="filter0_d_149_618" x="0" y="0" width="47" height="48" filterUnits="userSpaceOnUse" color-interpolation-filters="sRGB">
<feFlood flood-opacity="0" result="BackgroundImageFix"/>
<feColorMatrix in="SourceAlpha" type="matrix" values="0 0 0 0 0 0 0 0 0 0 0 0 0 0 0 0 0 0 127 0" result="hardAlpha"/>
<feOffset dy="4"/>
<feGaussianBlur stdDeviation="2"/>
<feComposite in2="hardAlpha" operator="out"/>
<feColorMatrix type="matrix" values="0 0 0 0 0 0 0 0 0 0 0 0 0 0 0 0 0 0 0.25 0"/>
<feBlend mode="normal" in2="BackgroundImageFix" result="effect1_dropShadow_149_618"/>
<feBlend mode="normal" in="SourceGraphic" in2="effect1_dropShadow_149_618" result="shape"/>
</filter>
</defs>
</svg>
