<svg width="47" height="48" viewBox="0 0 47 48" fill="none" xmlns="http://www.w3.org/2000/svg">
<g filter="url(#filter0_d_149_615)">
<rect x="12" y="8" width="26" height="24" fill="black"/>
<path d="M23.5 0C12.7293 0 4 8.95315 4 20C4 31.0469 12.7293 40 23.5 40C34.2707 40 43 31.0469 43 20C43 8.95315 34.2707 0 23.5 0ZM31.2848 16.8906C31.2924 17.0625 31.2924 17.2422 31.2924 17.4219C31.2924 22.8515 27.2629 29.1172 19.8895 29.1172C17.6271 29.1172 15.5172 28.4375 13.75 27.2735C14.0623 27.3125 14.3822 27.3281 14.7098 27.3281C16.5836 27.3281 18.3127 26.6719 19.6838 25.5703C17.9318 25.5391 16.4465 24.3516 15.9437 22.7188C16.1875 22.7656 16.4389 22.7891 16.6979 22.7891C17.0635 22.7891 17.4215 22.7422 17.7567 22.6406C15.9209 22.2656 14.5422 20.6015 14.5422 18.6094V18.5625C15.083 18.8672 15.7 19.0547 16.3551 19.0781C15.281 18.3437 14.5727 17.0781 14.5727 15.6563C14.5727 14.9063 14.7707 14.1953 15.1135 13.5859C17.094 16.0781 20.0418 17.711 23.3705 17.8828C23.302 17.586 23.2639 17.2735 23.2639 16.9453C23.2639 14.6797 25.0615 12.8359 27.2705 12.8359C28.4207 12.8359 29.4643 13.336 30.1955 14.1328C31.1096 13.9453 31.9627 13.6094 32.7396 13.1328C32.4426 14.0938 31.8028 14.8985 30.9801 15.4063C31.7875 15.3047 32.5644 15.086 33.2805 14.7578C32.7472 15.586 32.0693 16.3047 31.2848 16.8906Z" fill="white"/>
</g>
<defs>
<filter id="filter0_d_149_615" x="0" y="0" width="47" height="48" filterUnits="userSpaceOnUse" color-interpolation-filters="sRGB">
<feFlood flood-opacity="0" result="BackgroundImageFix"/>
<feColorMatrix in="SourceAlpha" type="matrix" values="0 0 0 0 0 0 0 0 0 0 0 0 0 0 0 0 0 0 127 0" result="hardAlpha"/>
<feOffset dy="4"/>
<feGaussianBlur stdDeviation="2"/>
<feComposite in2="hardAlpha" operator="out"/>
<feColorMatrix type="matrix" values="0 0 0 0 0 0 0 0 0 0 0 0 0 0 0 0 0 0 0.25 0"/>
<feBlend mode="normal" in2="BackgroundImageFix" result="effect1_dropShadow_149_615"/>
<feBlend mode="normal" in="SourceGraphic" in2="effect1_dropShadow_149_615" result="shape"/>
</filter>
</defs>
</svg>
